<svg xmlns="http://www.w3.org/2000/svg" version="1.1" xmlns:xlink="http://www.w3.org/1999/xlink" xmlns:svgjs="http://svgjs.dev/svgjs" viewBox="0 0 12.75764216119294 3.335919508551045"><g transform="matrix(1,0,0,1,3.4875483737142945,0.5189597542755224)"><g><path d=" M 0.183 0.00749999999999984 L 0.2595 0.00749999999999984 L 0.2595 1.0574999999999999 L 0.183 1.0574999999999999 L 0.183 0.00749999999999984 M 1.495474365234375 0.00749999999999984 L 1.495474365234375 1.0574999999999999 L 1.432474365234375 1.0574999999999999 L 0.716974365234375 0.14549999999999985 L 0.716974365234375 1.0574999999999999 L 0.640474365234375 1.0574999999999999 L 0.640474365234375 0.00749999999999984 L 0.704974365234375 0.00749999999999984 L 1.4189743652343751 0.9194999999999999 L 1.4189743652343751 0.00749999999999984 L 1.495474365234375 0.00749999999999984 M 2.62651318359375 0.5369999999999999 L 2.70001318359375 0.5369999999999999 L 2.70001318359375 0.9299999999999999 Q 2.6310131835937502 0.9959999999999999 2.53276318359375 1.0305 Q 2.4345131835937504 1.065 2.32501318359375 1.065 Q 2.1690131835937505 1.065 2.04376318359375 0.9959999999999999 Q 1.9185131835937503 0.9269999999999998 1.8472631835937503 0.8054999999999999 Q 1.7760131835937503 0.6839999999999999 1.7760131835937503 0.5324999999999999 Q 1.7760131835937503 0.3809999999999999 1.8472631835937503 0.25949999999999984 Q 1.9185131835937503 0.1379999999999999 2.04376318359375 0.06899999999999984 Q 2.1690131835937505 -2.220446049250313e-16 2.3265131835937503 -2.220446049250313e-16 Q 2.44201318359375 -2.220446049250313e-16 2.5387631835937503 0.03674999999999984 Q 2.6355131835937504 0.0734999999999999 2.7045131835937504 0.1439999999999999 L 2.6565131835937503 0.19499999999999984 Q 2.5905131835937505 0.1289999999999999 2.50876318359375 0.0997499999999999 Q 2.4270131835937505 0.0704999999999999 2.3280131835937503 0.0704999999999999 Q 2.19301318359375 0.0704999999999999 2.0842631835937504 0.13049999999999984 Q 1.9755131835937503 0.1904999999999999 1.9140131835937502 0.2962499999999999 Q 1.8525131835937503 0.4019999999999999 1.8525131835937503 0.5324999999999999 Q 1.8525131835937503 0.6614999999999999 1.9147631835937502 0.7672499999999999 Q 1.9770131835937503 0.8729999999999999 2.0850131835937504 0.9337499999999999 Q 2.19301318359375 0.9944999999999999 2.3280131835937503 0.9944999999999999 Q 2.50801318359375 0.9944999999999999 2.62651318359375 0.8984999999999999 L 2.62651318359375 0.5369999999999999 M 3.7755285644531256 0.9884999999999999 L 3.7755285644531256 1.0574999999999999 L 3.051028564453125 1.0574999999999999 L 3.051028564453125 0.00749999999999984 L 3.7530285644531256 0.00749999999999984 L 3.7530285644531256 0.0764999999999999 L 3.1275285644531254 0.0764999999999999 L 3.1275285644531254 0.4904999999999998 L 3.6870285644531253 0.4904999999999998 L 3.6870285644531253 0.5579999999999998 L 3.1275285644531254 0.5579999999999998 L 3.1275285644531254 0.9884999999999999 L 3.7755285644531256 0.9884999999999999 M 4.924538085937501 0.00749999999999984 L 4.924538085937501 1.0574999999999999 L 4.8615380859375 1.0574999999999999 L 4.146038085937501 0.14549999999999985 L 4.146038085937501 1.0574999999999999 L 4.0695380859375 1.0574999999999999 L 4.0695380859375 0.00749999999999984 L 4.1340380859375 0.00749999999999984 L 4.8480380859375005 0.9194999999999999 L 4.8480380859375005 0.00749999999999984 L 4.924538085937501 0.00749999999999984 M 5.305576904296876 0.00749999999999984 L 5.382076904296876 0.00749999999999984 L 5.382076904296876 1.0574999999999999 L 5.305576904296876 1.0574999999999999 L 5.305576904296876 0.00749999999999984 M 6.4875512695312505 0.9884999999999999 L 6.4875512695312505 1.0574999999999999 L 5.763051269531251 1.0574999999999999 L 5.763051269531251 0.00749999999999984 L 6.4650512695312505 0.00749999999999984 L 6.4650512695312505 0.0764999999999999 L 5.839551269531251 0.0764999999999999 L 5.839551269531251 0.4904999999999998 L 6.399051269531251 0.4904999999999998 L 6.399051269531251 0.5579999999999998 L 5.839551269531251 0.5579999999999998 L 5.839551269531251 0.9884999999999999 L 6.4875512695312505 0.9884999999999999 M 6.8828107910156255 0.9494999999999999 Q 6.772560791015626 0.8339999999999999 6.772560791015626 0.6119999999999999 L 6.772560791015626 0.00749999999999984 L 6.849060791015625 0.00749999999999984 L 6.849060791015625 0.6089999999999999 Q 6.849060791015625 0.8024999999999999 6.937560791015626 0.8984999999999999 Q 7.026060791015626 0.9944999999999999 7.194060791015626 0.9944999999999999 Q 7.360560791015626 0.9944999999999999 7.449060791015626 0.8984999999999999 Q 7.5375607910156255 0.8024999999999999 7.5375607910156255 0.6089999999999999 L 7.5375607910156255 0.00749999999999984 L 7.614060791015626 0.00749999999999984 L 7.614060791015626 0.6119999999999999 Q 7.614060791015626 0.8339999999999999 7.503060791015625 0.9494999999999999 Q 7.392060791015625 1.065 7.192560791015626 1.065 Q 6.993060791015625 1.065 6.8828107910156255 0.9494999999999999 M 8.629590820312501 1.0574999999999999 L 8.268090820312501 0.5714999999999999 L 7.908090820312501 1.0574999999999999 L 7.818090820312501 1.0574999999999999 L 8.221590820312501 0.5159999999999999 L 7.846590820312501 0.00749999999999984 L 7.936590820312501 0.00749999999999984 L 8.271090820312502 0.45899999999999985 L 8.605590820312502 0.00749999999999984 L 8.691090820312501 0.00749999999999984 L 8.316090820312501 0.5144999999999998 L 8.7195908203125 1.0574999999999999 L 8.629590820312501 1.0574999999999999 M 0.34875 2.2289999999999996 Q 0.225 2.1599999999999997 0.15375 2.0385 Q 0.0825 1.9169999999999998 0.0825 1.7654999999999998 Q 0.0825 1.6139999999999999 0.15375 1.4924999999999997 Q 0.225 1.3709999999999998 0.34875 1.3019999999999996 Q 0.47250000000000003 1.2329999999999997 0.627 1.2329999999999997 Q 0.741 1.2329999999999997 0.837 1.2697499999999997 Q 0.933 1.3064999999999998 1.0005 1.3784999999999998 L 0.9525 1.4279999999999997 Q 0.8265 1.3034999999999997 0.63 1.3034999999999997 Q 0.498 1.3034999999999997 0.39 1.3634999999999997 Q 0.28200000000000003 1.4234999999999998 0.2205 1.5292499999999998 Q 0.159 1.6349999999999998 0.159 1.7654999999999998 Q 0.159 1.8959999999999997 0.2205 2.00175 Q 0.28200000000000003 2.1075 0.39 2.1674999999999995 Q 0.498 2.2274999999999996 0.63 2.2274999999999996 Q 0.8250000000000001 2.2274999999999996 0.9525 2.1014999999999997 L 1.0005 2.151 Q 0.933 2.223 0.83625 2.2605 Q 0.7395 2.2979999999999996 0.627 2.2979999999999996 Q 0.47250000000000003 2.2979999999999996 0.34875 2.2289999999999996 M 2.001005126953125 2.2904999999999998 L 1.750505126953125 1.9394999999999998 Q 1.695005126953125 1.9469999999999996 1.648505126953125 1.9469999999999996 L 1.3485051269531252 1.9469999999999996 L 1.3485051269531252 2.2904999999999998 L 1.2720051269531252 2.2904999999999998 L 1.2720051269531252 1.2404999999999997 L 1.648505126953125 1.2404999999999997 Q 1.8465051269531252 1.2404999999999997 1.9590051269531252 1.3342499999999997 Q 2.071505126953125 1.4279999999999997 2.071505126953125 1.5944999999999996 Q 2.071505126953125 1.7189999999999999 2.0077551269531253 1.8037499999999997 Q 1.944005126953125 1.8884999999999996 1.825505126953125 1.9229999999999998 L 2.0880051269531252 2.2904999999999998 L 2.001005126953125 2.2904999999999998 M 1.648505126953125 1.8794999999999997 Q 1.8165051269531252 1.8794999999999997 1.9050051269531252 1.8052499999999998 Q 1.9935051269531252 1.7309999999999999 1.9935051269531252 1.5944999999999996 Q 1.9935051269531252 1.4579999999999997 1.9050051269531252 1.3837499999999996 Q 1.8165051269531252 1.3094999999999999 1.648505126953125 1.3094999999999999 L 1.3485051269531252 1.3094999999999999 L 1.3485051269531252 1.8794999999999997 L 1.648505126953125 1.8794999999999997 M 2.6759465332031254 1.9289999999999998 L 2.6759465332031254 2.2904999999999998 L 2.599446533203125 2.2904999999999998 L 2.599446533203125 1.9289999999999998 L 2.176446533203125 1.2404999999999997 L 2.260446533203125 1.2404999999999997 L 2.6399465332031253 1.8584999999999998 L 3.0194465332031255 1.2404999999999997 L 3.0989465332031254 1.2404999999999997 L 2.6759465332031254 1.9289999999999998 M 3.9659033203125005 1.3342499999999997 Q 4.078403320312501 1.4279999999999997 4.078403320312501 1.5944999999999996 Q 4.078403320312501 1.7594999999999996 3.9659033203125005 1.8532499999999996 Q 3.8534033203125 1.9469999999999996 3.6554033203125003 1.9469999999999996 L 3.3554033203125004 1.9469999999999996 L 3.3554033203125004 2.2904999999999998 L 3.2789033203125 2.2904999999999998 L 3.2789033203125 1.2404999999999997 L 3.6554033203125003 1.2404999999999997 Q 3.8534033203125 1.2404999999999997 3.9659033203125005 1.3342499999999997 M 3.9119033203125007 1.8044999999999998 Q 4.0004033203125005 1.7309999999999999 4.0004033203125005 1.5944999999999996 Q 4.0004033203125005 1.4579999999999997 3.9119033203125007 1.3837499999999996 Q 3.8234033203125004 1.3094999999999999 3.6554033203125003 1.3094999999999999 L 3.3554033203125004 1.3094999999999999 L 3.3554033203125004 1.8779999999999997 L 3.6554033203125003 1.8779999999999997 Q 3.8234033203125004 1.8779999999999997 3.9119033203125007 1.8044999999999998 M 4.516448730468751 1.3094999999999999 L 4.138448730468751 1.3094999999999999 L 4.138448730468751 1.2404999999999997 L 4.97094873046875 1.2404999999999997 L 4.97094873046875 1.3094999999999999 L 4.59294873046875 1.3094999999999999 L 4.59294873046875 2.2904999999999998 L 4.516448730468751 2.2904999999999998 L 4.516448730468751 1.3094999999999999 M 5.32641650390625 2.2282499999999996 Q 5.20191650390625 2.1584999999999996 5.13066650390625 2.037 Q 5.05941650390625 1.9154999999999998 5.05941650390625 1.7654999999999998 Q 5.05941650390625 1.6154999999999997 5.13066650390625 1.4939999999999998 Q 5.20191650390625 1.3724999999999996 5.32641650390625 1.3027499999999996 Q 5.45091650390625 1.2329999999999997 5.60541650390625 1.2329999999999997 Q 5.7599165039062505 1.2329999999999997 5.88441650390625 1.3019999999999996 Q 6.00891650390625 1.3709999999999998 6.08016650390625 1.4924999999999997 Q 6.15141650390625 1.6139999999999999 6.15141650390625 1.7654999999999998 Q 6.15141650390625 1.9169999999999998 6.08016650390625 2.0385 Q 6.00891650390625 2.1599999999999997 5.88441650390625 2.2289999999999996 Q 5.7599165039062505 2.2979999999999996 5.60541650390625 2.2979999999999996 Q 5.45091650390625 2.2979999999999996 5.32641650390625 2.2282499999999996 M 5.84391650390625 2.1674999999999995 Q 5.950416503906251 2.1075 6.01191650390625 2.00175 Q 6.07341650390625 1.8959999999999997 6.07341650390625 1.7654999999999998 Q 6.07341650390625 1.6349999999999998 6.01191650390625 1.5292499999999998 Q 5.950416503906251 1.4234999999999998 5.84391650390625 1.3634999999999997 Q 5.737416503906251 1.3034999999999997 5.60541650390625 1.3034999999999997 Q 5.47341650390625 1.3034999999999997 5.36616650390625 1.3634999999999997 Q 5.25891650390625 1.4234999999999998 5.1974165039062505 1.5292499999999998 Q 5.13591650390625 1.6349999999999998 5.13591650390625 1.7654999999999998 Q 5.13591650390625 1.8959999999999997 5.1974165039062505 2.00175 Q 5.25891650390625 2.1075 5.36616650390625 2.1674999999999995 Q 5.47341650390625 2.2274999999999996 5.60541650390625 2.2274999999999996 Q 5.737416503906251 2.2274999999999996 5.84391650390625 2.1674999999999995" fill="#000000" fill-rule="nonzero"></path></g><g></g><g clip-path="url(#SvgjsClipPath1001)"><g clip-path="url(#SvgjsClipPath1000ad2ae68e-2fd1-4955-8eab-1daa6f3616fd)"><path d=" M -2.0553516046389317 1.0055383671388303 L -2.458908899558477 0.30649340271848347 L -2.297534661602109 0.026826736938894813 L -0.5216878439103083 0.026826736938894813 L -0.6833054819239264 0.30649340271848347 L -2.1361604236457405 0.30649340271848347 L -1.7326031287261947 1.0055383671388303 L -1.8939773666825632 1.2849616328611695 L -2.2167258425953 1.2849616328611695 L -2.0553516046389317 1.0055383671388303 Z" fill="#3361e1" transform="matrix(1,0,0,1,0,0)" fill-rule="evenodd"></path></g><g clip-path="url(#SvgjsClipPath1000ad2ae68e-2fd1-4955-8eab-1daa6f3616fd)"><path d=" M -2.539717718565286 0.7258717013592416 L -2.968588619438772 1.4687286760844849 L -2.8072143814824035 1.7483953418640734 L -1.6264807037654458 1.7483953418640734 L -1.7878549417218141 1.4687286760844849 L -2.6458401435260352 1.4687286760844849 L -2.3783434806089176 1.0055383671388303 L -2.539717718565286 0.7258717013592416 Z" fill="#3361e1" transform="matrix(1,0,0,1,0,0)" fill-rule="evenodd"></path></g><g clip-path="url(#SvgjsClipPath1000ad2ae68e-2fd1-4955-8eab-1daa6f3616fd)"><path d=" M -1.2482370147998405 1.2849616328611695 L -0.8446797198802942 1.9840065972815162 L -1.006053957836663 2.263673263061105 L -2.7819007755284635 2.263673263061105 L -2.6202831375148454 1.9840065972815162 L -1.1674281957930315 1.9840065972815162 L -1.5709854907125769 1.2849616328611695 L -1.4096112527562086 1.0055383671388303 L -1.086862776843472 1.0055383671388303 L -1.2482370147998405 1.2849616328611695 Z" fill="#3361e1" transform="matrix(1,0,0,1,0,0)" fill-rule="evenodd"></path></g><g clip-path="url(#SvgjsClipPath1000ad2ae68e-2fd1-4955-8eab-1daa6f3616fd)"><path d=" M -0.7638709008734854 1.564628298640758 L -0.33499999999999996 0.8217713239155149 L -0.4963742379563687 0.5421046581359262 L -1.6771079156733262 0.5421046581359262 L -1.5157336777169577 0.8217713239155149 L -0.6577484759127366 0.8217713239155149 L -0.9252451388298542 1.2849616328611695 L -0.7638709008734854 1.564628298640758 Z" fill="#3361e1" transform="matrix(1,0,0,1,0,0)" fill-rule="evenodd"></path></g></g></g><defs><clipPath id="SvgjsClipPath1001"><path d=" M -2.968588619438772 0.026826736938894813 h 2.633588619438772 v 2.23684652612221 h -2.633588619438772 Z"></path></clipPath><clipPath id="SvgjsClipPath1000ad2ae68e-2fd1-4955-8eab-1daa6f3616fd"><path d=" M -2.968588619438772 0.026826736938894813 L -0.33499999999999996 0.026826736938894813 L -0.33499999999999996 2.263673263061105 L -2.968588619438772 2.263673263061105 Z"></path></clipPath></defs></svg>